# xmcd
#
# Track frame offsets:
#	150
#	18855
#	36254
#	55047
#	68338
#	87801
#	108716
#	127390
#	146449
#	161530
#	179710
#	198446
#	217031
#	235576
#	252268
#
# Disc length: 3595 seconds
#
# Revision: 1
# Processed by: cddbd v1.5.2PL0 Copyright (c) Steve Scherf et al.
# Submitted via: audiograbber 1.83.01
#
DISCID=d30e090f
DTITLE=Various Artist - CB-E8-10
DYEAR=1900
DGENRE=Karaoke
TTITLE0=Rodney Atkins - Watching You
TTITLE1=Steve Holy - Brand New Girlfriend
TTITLE2=Carrie Underwood - Don't Forget To Remember Me
TTITLE3=Jack Ingram - Love You
TTITLE4=Little Big Town - Bring It On Home
TTITLE5=Martina McBride - Anyway
TTITLE6=Jake Owen - Startin' With Me
TTITLE7=Rascal Flatts - My Wish
TTITLE8=Julie Roberts - Girl Next Door
TTITLE9=Josh Turner - Would You Go With Me
TTITLE10=Kenny Chesney - You Save Me
TTITLE11=LeAnn Rimes - Some People
TTITLE12=Lonestar - Mountains
TTITLE13=Tim McGraw - When The Stars Go Blue
TTITLE14=Gretchen Wilson - One Of The Boys
EXTD=
EXTT0=
EXTT1=
EXTT2=
EXTT3=
EXTT4=
EXTT5=
EXTT6=
EXTT7=
EXTT8=
EXTT9=
EXTT10=
EXTT11=
EXTT12=
EXTT13=
EXTT14=
PLAYORDER=
